<svg width="42" height="41" viewBox="0 0 42 41" fill="none" xmlns="http://www.w3.org/2000/svg">
<g clip-path="url(#clip0)">
<path d="M23.2246 9.99768L20.8687 12.0887V12.2432C22.8177 14.3721 24.0225 17.2862 24.0225 20.5C24.0225 23.7169 22.8177 26.6279 20.8687 28.7568V28.9113L23.2246 31.0023C25.672 28.2774 27.1763 24.5779 27.1763 20.5C27.1763 16.4221 25.672 12.7226 23.2246 9.99768Z" fill="white"/>
<path d="M0.5 14.1923V20.4999V26.8076H6.80769L16.2692 36.2692V4.73071L6.80769 14.1923H0.5Z" fill="white"/>
<path d="M28.1855 5.58545L25.8264 7.6796C28.646 11.193 30.3301 15.6494 30.3301 20.5C30.3301 25.3506 28.646 29.8101 25.8296 33.3172L28.1855 35.4114C31.5002 31.3461 33.4839 26.158 33.4839 20.5C33.4839 14.8451 31.5002 9.65391 28.1855 5.58545Z" fill="white"/>
<path d="M33.0044 1.30566L30.6327 3.41243C34.3858 8.07382 36.6376 14.0188 36.6376 20.5C36.6376 26.9811 34.3858 32.923 30.6327 37.5875L33.0044 39.6943C37.24 34.4715 39.7915 27.7854 39.7915 20.5C39.7915 13.2146 37.24 6.52843 33.0044 1.30566Z" fill="white"/>
</g>
<defs>
<clipPath id="clip0">
<rect width="41" height="41" fill="white" transform="translate(0.5)"/>
</clipPath>
</defs>
</svg>
