<svg width="109" height="29" viewBox="0 0 109 29" fill="none" xmlns="http://www.w3.org/2000/svg">
<path d="M17.644 13.4999C17.644 10.3484 20.2046 8.77264 20.4016 8.67416C18.9243 6.50749 16.5607 6.21203 15.7728 6.21203C13.8031 6.01506 11.9319 7.39385 10.947 7.39385C9.96218 7.39385 8.38642 6.21203 6.81066 6.31052C4.74248 6.31052 2.77277 7.59082 1.68944 9.46204C-0.575721 13.303 1.09853 19.0151 3.2652 22.1666C4.34853 23.7424 5.62884 25.4166 7.2046 25.3181C8.78036 25.2197 9.37127 24.3333 11.341 24.3333C13.2122 24.3333 13.8031 25.3181 15.4774 25.3181C17.1516 25.3181 18.2349 23.7424 19.3183 22.2651C20.5986 20.4924 21.091 18.8181 21.091 18.7196C20.9925 18.5227 17.7425 17.2424 17.644 13.4999ZM14.4925 4.14384C15.3789 3.06051 15.9698 1.58323 15.7728 0.105957C14.4925 0.204442 13.0152 0.992323 12.0304 1.97717C11.2425 2.86354 10.5531 4.4393 10.7501 5.81809C12.2273 6.01506 13.6061 5.22718 14.4925 4.14384ZM40.788 25.0227H38.5229L37.341 21.1818H33.1062L31.9244 25.0227H29.7577L33.9925 11.9242H36.5532L40.788 25.0227ZM37.0456 19.606L35.9622 16.159C35.8638 15.7651 35.6668 14.9772 35.2729 13.6969C35.1744 14.2878 34.9774 15.0757 34.6819 16.159L33.5001 19.606H37.0456ZM51.7199 20.1969C51.7199 21.7727 51.3259 23.053 50.4396 24.0378C49.6517 24.8257 48.6668 25.3181 47.5835 25.3181C46.3032 25.3181 45.4168 24.8257 44.9244 23.9394V28.9621H42.8562V18.7196C42.8562 17.7348 42.8562 16.6515 42.7577 15.5681H44.6289L44.7274 17.0454C45.4168 15.9621 46.5002 15.3711 47.8789 15.3711C48.9623 15.3711 49.9471 15.7651 50.6365 16.6515C51.3259 17.5378 51.7199 18.7196 51.7199 20.1969ZM49.5532 20.2954C49.5532 19.409 49.3562 18.6212 48.9623 18.0302C48.4699 17.4393 47.8789 17.1439 47.0911 17.1439C46.5986 17.1439 46.1062 17.3408 45.7123 17.6363C45.3183 18.0302 45.0229 18.4242 44.9244 19.0151C44.8259 19.3106 44.8259 19.5075 44.8259 19.606V21.1818C44.8259 21.8712 45.0229 22.4621 45.4168 22.9545C45.8108 23.4469 46.4017 23.6439 47.0911 23.6439C47.8789 23.6439 48.4699 23.3484 48.9623 22.7575C49.3562 22.0681 49.5532 21.2803 49.5532 20.2954ZM62.5532 20.1969C62.5532 21.7727 62.1593 23.053 61.2729 24.0378C60.485 24.8257 59.5002 25.3181 58.4169 25.3181C57.1365 25.3181 56.2502 24.8257 55.7578 23.9394V28.9621H53.6896V18.7196C53.6896 17.7348 53.6896 16.6515 53.5911 15.5681H55.4623L55.5608 17.0454C56.2502 15.9621 57.3335 15.3711 58.7123 15.3711C59.7956 15.3711 60.7805 15.7651 61.4699 16.6515C62.1593 17.5378 62.5532 18.7196 62.5532 20.1969ZM60.3866 20.2954C60.3866 19.409 60.1896 18.6212 59.7956 18.0302C59.3032 17.4393 58.7123 17.1439 57.9244 17.1439C57.432 17.1439 56.9396 17.3408 56.5456 17.6363C56.1517 18.0302 55.8562 18.4242 55.7578 19.0151C55.6593 19.3106 55.6593 19.5075 55.6593 19.606V21.1818C55.6593 21.8712 55.8562 22.4621 56.2502 22.9545C56.6441 23.4469 57.235 23.6439 57.9244 23.6439C58.7123 23.6439 59.3032 23.3484 59.7956 22.7575C60.1896 22.0681 60.3866 21.2803 60.3866 20.2954ZM74.6669 21.3787C74.6669 22.4621 74.273 23.4469 73.4851 24.1363C72.5987 24.9242 71.4169 25.3181 69.9396 25.3181C68.5608 25.3181 67.379 25.0227 66.5911 24.5303L67.0835 22.7575C67.9699 23.3484 69.0532 23.6439 70.1366 23.6439C70.9245 23.6439 71.5154 23.4469 72.0078 23.1515C72.4017 22.7575 72.6972 22.3636 72.6972 21.6742C72.6972 21.1818 72.5002 20.6893 72.1063 20.2954C71.7123 19.9015 71.1214 19.606 70.3335 19.3106C68.0684 18.4242 66.8866 17.2424 66.8866 15.5681C66.8866 14.4848 67.2805 13.5984 68.0684 12.909C68.8563 12.2196 69.9396 11.9242 71.3184 11.9242C72.5002 11.9242 73.4851 12.1211 74.2729 12.5151L73.682 14.0908C72.8942 13.6969 72.1063 13.4999 71.2199 13.4999C70.432 13.4999 69.9396 13.6969 69.4472 14.0908C69.0532 14.3863 68.9548 14.7802 68.9548 15.2727C68.9548 15.7651 69.1517 16.2575 69.5457 16.553C69.9396 16.8484 70.5305 17.2424 71.4169 17.5378C72.5002 18.0302 73.3866 18.5227 73.879 19.1136C74.4699 19.7045 74.6669 20.4924 74.6669 21.3787ZM81.6593 17.1439H79.3942V21.7727C79.3942 22.9545 79.7881 23.5454 80.576 23.5454C80.9699 23.5454 81.2654 23.5454 81.4624 23.4469L81.5608 25.0227C81.1669 25.2197 80.576 25.2197 79.8866 25.2197C79.0987 25.2197 78.4093 24.9242 77.9169 24.4318C77.4245 23.9394 77.2275 23.053 77.2275 21.8712V17.1439H75.8487V15.5681H77.2275V13.7954L79.2957 13.2045V15.5681H81.5608C81.6593 15.5681 81.6593 17.1439 81.6593 17.1439ZM92.0987 20.1969C92.0987 21.6742 91.7048 22.856 90.8185 23.7424C89.9321 24.7272 88.7503 25.2197 87.3715 25.2197C85.9927 25.2197 84.9093 24.7272 84.023 23.8409C83.1366 22.9545 82.7427 21.7727 82.7427 20.3939C82.7427 18.9166 83.1366 17.7348 84.023 16.7499C84.9093 15.8636 85.9927 15.3711 87.47 15.3711C88.8487 15.3711 89.9321 15.8636 90.8185 16.7499C91.7048 17.6363 92.0987 18.8181 92.0987 20.1969ZM89.9321 20.2954C89.9321 19.409 89.7351 18.7196 89.3412 18.0302C88.9472 17.2424 88.2578 16.9469 87.47 16.9469C86.5836 16.9469 85.9927 17.3408 85.5003 18.0302C85.1063 18.6212 84.9093 19.409 84.9093 20.2954C84.9093 21.1818 85.1063 21.8712 85.5003 22.5606C85.9927 23.3484 86.5836 23.6439 87.3715 23.6439C88.1593 23.6439 88.8487 23.25 89.2427 22.4621C89.7351 21.8712 89.9321 21.1818 89.9321 20.2954ZM98.8942 17.4393C98.6973 17.4393 98.5003 17.3408 98.2048 17.3408C97.4169 17.3408 96.9245 17.6363 96.5306 18.2272C96.1366 18.7196 96.0382 19.3105 96.0382 20.0984V25.0227H93.97V18.5227C93.97 17.4393 93.97 16.4545 93.8715 15.5681H95.7427L95.8412 17.3408H95.9397C96.1366 16.7499 96.5306 16.2575 97.023 15.8636C97.5154 15.5681 98.0079 15.3711 98.5003 15.3711H98.9927C98.8942 15.3711 98.8942 17.4393 98.8942 17.4393ZM108.349 19.9015C108.349 20.2954 108.349 20.5909 108.25 20.8863H101.947C101.947 21.7727 102.243 22.5606 102.834 23.053C103.326 23.4469 104.015 23.7424 104.902 23.7424C105.788 23.7424 106.675 23.5454 107.462 23.25L107.758 24.7272C106.872 25.1212 105.788 25.3181 104.606 25.3181C103.129 25.3181 101.947 24.9242 101.159 24.0378C100.371 23.1515 99.8791 22.0681 99.8791 20.5909C99.8791 19.2121 100.273 17.9318 101.061 17.0454C101.849 16.0605 102.932 15.5681 104.409 15.5681C105.788 15.5681 106.773 16.0605 107.462 17.0454C108.053 17.6363 108.349 18.7196 108.349 19.9015ZM106.281 19.3106C106.281 18.7196 106.182 18.1287 105.887 17.7348C105.493 17.1439 105 16.8484 104.212 16.8484C103.523 16.8484 102.932 17.1439 102.538 17.7348C102.144 18.2272 101.947 18.7196 101.947 19.409L106.281 19.3106Z" fill="white"/>
<path d="M30.7426 1.18935C30.9396 1.09087 31.235 0.992381 31.5305 0.893896C31.826 0.795411 32.1214 0.79541 32.5154 0.79541C33.1063 0.79541 33.5987 0.893895 33.9926 1.18935C34.3866 1.48481 34.4851 1.87875 34.4851 2.37117C34.4851 2.76511 34.3866 3.06057 34.0911 3.35602C33.8941 3.65148 33.5002 3.84845 33.2048 3.84845C33.4017 3.84845 33.5987 3.94693 33.7957 4.04542C33.9926 4.1439 34.0911 4.24239 34.2881 4.34087C34.3866 4.43936 34.4851 4.63633 34.5835 4.8333C34.682 5.03027 34.682 5.22724 34.682 5.42421C34.682 5.81815 34.5835 6.11361 34.4851 6.31058C34.3866 6.50755 34.1896 6.70452 33.8941 6.90149C33.6972 7.09846 33.4017 7.19694 33.1063 7.19694C32.8108 7.19694 32.5154 7.29543 32.2199 7.29543C31.9244 7.29543 31.629 7.29543 31.3335 7.19694C31.0381 7.09846 30.7426 6.99997 30.5457 6.90149L30.8411 6.11361C31.0381 6.21209 31.235 6.31058 31.5305 6.31058C31.826 6.40906 32.0229 6.40906 32.3184 6.40906C32.7123 6.40906 33.1063 6.31058 33.3032 6.11361C33.5002 5.91663 33.6972 5.62118 33.6972 5.32573C33.6972 5.12875 33.6972 4.93178 33.5987 4.73481C33.5002 4.63633 33.4017 4.43936 33.2048 4.43936C33.0078 4.34087 32.9093 4.34087 32.7123 4.24239C32.5154 4.1439 32.3184 4.24239 32.1214 4.24239H31.7275V3.45451H32.1214C32.3184 3.45451 32.5154 3.45451 32.7123 3.35602C32.9093 3.25754 33.0078 3.25754 33.1063 3.15905L33.4017 2.8636C33.5002 2.76511 33.5002 2.56814 33.5002 2.46966C33.5002 2.1742 33.4017 1.97723 33.2048 1.78026C33.0078 1.58329 32.7123 1.58329 32.4169 1.58329C32.2199 1.58329 31.9244 1.58329 31.7275 1.68178C31.5305 1.78026 31.235 1.87875 31.1366 1.97723L30.7426 1.18935ZM39.0154 7.19694L38.9169 6.70452C38.6214 7.09846 38.129 7.29543 37.5381 7.29543C37.3411 7.29543 37.1442 7.29543 36.9472 7.19694C36.7502 7.09846 36.6517 6.99997 36.4548 6.90149C36.3563 6.803 36.2578 6.60603 36.1593 6.50755C36.0608 6.31058 36.0608 6.11361 36.0608 5.91664C36.0608 5.32573 36.2578 4.93178 36.7502 4.63633C37.2426 4.34087 37.932 4.24239 38.7199 4.24239V4.1439C38.7199 3.55299 38.4245 3.25754 37.7351 3.25754C37.2426 3.25754 36.8487 3.35602 36.5532 3.55299L36.4548 2.8636C36.8487 2.56814 37.4396 2.46966 38.0305 2.46966C39.2123 2.46966 39.8033 3.06057 39.8033 4.34087V6.01512C39.8033 6.50755 39.8033 6.90149 39.9017 7.09846L39.0154 7.19694ZM38.8184 4.93179C38.2275 4.93179 37.8336 5.03027 37.5381 5.12875C37.2426 5.22724 37.1442 5.5227 37.1442 5.81815C37.1442 6.01512 37.2426 6.21209 37.3411 6.40906C37.4396 6.50755 37.6366 6.60603 37.8335 6.60603C37.932 6.60603 38.129 6.60603 38.2275 6.50755C38.326 6.50755 38.4245 6.40906 38.5229 6.31058C38.6214 6.21209 38.7199 6.11361 38.7199 6.01512C38.8184 5.91664 38.8184 5.81815 38.8184 5.62118V4.93179ZM44.826 2.56814V3.45451H42.8563V7.29543H41.8714V2.66663H44.826V2.56814ZM50.7351 4.8333C50.7351 5.22724 50.6366 5.5227 50.5381 5.81815C50.4396 6.11361 50.3412 6.40906 50.1442 6.60603C49.9472 6.803 49.7502 6.99997 49.4548 7.09846C49.1593 7.19694 48.9624 7.29543 48.6669 7.29543C48.076 7.29543 47.5836 7.09846 47.3866 6.60603V9.06816H46.4018V4.04542V3.25754V2.46966H47.2881L47.3866 3.15905C47.6821 2.56814 48.273 2.37117 48.9624 2.37117C49.2578 2.37117 49.4548 2.46966 49.7502 2.56814C49.9472 2.66663 50.1442 2.8636 50.3412 3.06057C50.5381 3.25754 50.6366 3.55299 50.7351 3.84845C50.6366 4.1439 50.7351 4.53784 50.7351 4.8333ZM49.6518 4.93179C49.6518 4.73481 49.6518 4.53784 49.5533 4.34087C49.4548 4.1439 49.4548 3.94693 49.3563 3.84845C49.2578 3.74996 49.1593 3.65148 48.9624 3.55299C48.7654 3.45451 48.6669 3.45451 48.4699 3.45451C48.3715 3.45451 48.1745 3.45451 48.076 3.55299C47.9775 3.65148 47.7805 3.74996 47.6821 3.84845C47.5836 3.94693 47.4851 4.04542 47.3866 4.24239C47.2881 4.43936 47.2881 4.53784 47.2881 4.73481V5.5227C47.2881 5.71967 47.2881 5.81815 47.3866 6.01512C47.4851 6.11361 47.4851 6.31058 47.5836 6.40906C47.6821 6.50755 47.7805 6.60603 47.9775 6.70452C48.076 6.803 48.273 6.803 48.4699 6.803C48.8639 6.803 49.1593 6.70452 49.3563 6.31058C49.5533 5.91664 49.6518 5.42421 49.6518 4.93179ZM56.2503 2.56814L55.0684 5.81815C54.773 6.60603 54.4775 7.19694 54.2806 7.68937C53.9851 8.18179 53.7881 8.57573 53.4927 8.7727C53.0987 9.06816 52.8033 9.26513 52.3109 9.36361L52.0154 8.47725C52.3109 8.37876 52.5078 8.28028 52.8033 8.08331C53.0003 7.88634 53.1972 7.59088 53.3942 7.29543C53.4927 7.19694 53.4927 7.09846 53.4927 7.09846C53.4927 7.09846 53.4927 6.99997 53.3942 6.90149L51.7199 2.66663H52.9018L53.7881 5.22724C53.7881 5.32572 53.8866 5.52269 53.8866 5.62118C53.8866 5.81815 53.9851 5.91663 53.9851 6.11361C53.9851 6.01512 54.0836 5.91664 54.0836 5.71967C54.0836 5.52269 54.1821 5.42421 54.2806 5.22724L55.0684 2.66663L56.2503 2.56814ZM58.023 4.53784H58.5154C58.9094 4.53784 59.1063 4.43936 59.3033 4.34087C59.5003 4.24239 59.5988 4.04542 59.5988 3.84845C59.5988 3.65148 59.5003 3.55299 59.4018 3.35602C59.2048 3.25754 59.0079 3.15905 58.7124 3.15905C58.5154 3.15905 58.3184 3.15905 58.1215 3.25754C57.9245 3.35602 57.7275 3.35602 57.6291 3.45451L57.3336 2.8636C57.6291 2.76511 57.826 2.66663 58.1215 2.56814C58.4169 2.46966 58.6139 2.46966 58.9094 2.46966C59.1063 2.46966 59.3033 2.46966 59.5003 2.56814C59.6972 2.56814 59.8942 2.66663 60.0912 2.76511C60.2882 2.8636 60.3866 2.96208 60.4851 3.15905C60.5836 3.35602 60.6821 3.55299 60.6821 3.74996C60.6821 3.84845 60.6821 4.04542 60.5836 4.1439C60.4851 4.24239 60.4851 4.34087 60.3866 4.43936C60.2882 4.53784 60.1897 4.63633 60.0912 4.63633C59.9927 4.73481 59.8942 4.73481 59.6972 4.73481C59.8942 4.73481 59.9927 4.8333 60.1897 4.8333C60.2882 4.93178 60.4851 4.93179 60.5836 5.03027L60.8791 5.32573C60.9775 5.42421 60.9775 5.62118 60.9775 5.81815C60.9775 6.11361 60.8791 6.31058 60.7806 6.50755C60.6821 6.70452 60.4851 6.803 60.2882 6.90149C60.0912 6.99997 59.8942 7.09846 59.5988 7.09846C59.3033 7.09846 59.1063 7.19694 58.9094 7.19694C58.6139 7.19694 58.3185 7.19694 58.023 7.09846C57.7275 6.99997 57.5306 6.90149 57.2351 6.803L57.5306 6.11361C57.7275 6.21209 57.9245 6.31058 58.1215 6.31058C58.3184 6.40906 58.5154 6.40906 58.8109 6.40906C59.2048 6.40906 59.4018 6.31058 59.5988 6.21209C59.7957 6.11361 59.8942 5.91664 59.8942 5.71967C59.8942 5.62118 59.8942 5.5227 59.7957 5.42421C59.6972 5.32573 59.5988 5.22724 59.5003 5.22724C59.4018 5.12875 59.2048 5.12875 59.1063 5.12875H58.1215V4.53784H58.023ZM63.5382 2.56814V6.21209C63.6366 6.01512 63.7351 5.71967 63.9321 5.5227C64.0306 5.32573 64.1291 5.03027 64.326 4.8333L65.5079 2.66663H66.8867V7.29543H65.9018V5.62118V4.63633C65.9018 4.24239 65.9018 3.94693 66.0003 3.55299C65.9018 3.84845 65.8033 4.04542 65.7048 4.34087C65.6063 4.53784 65.5079 4.73482 65.4094 5.03027L64.8185 6.21209L64.2276 7.39391H62.8488V2.76511H63.5382V2.56814ZM72.1064 2.56814V3.45451H70.7276V7.29543H69.7427V3.45451H68.3639V2.56814H72.1064ZM77.4246 4.73481V5.22724H74.3715C74.3715 5.62118 74.5685 6.01512 74.7655 6.21209C75.0609 6.40906 75.3564 6.60603 75.8488 6.60603C76.3412 6.60603 76.7352 6.50755 77.1291 6.40906L77.3261 7.09846C76.9321 7.29543 76.3412 7.39391 75.7503 7.39391C75.3564 7.39391 75.0609 7.29543 74.7655 7.19694C74.47 7.09846 74.273 6.90149 74.0761 6.70452C73.8791 6.50755 73.6821 6.21209 73.5836 6.01512C73.4852 5.71967 73.3867 5.42421 73.3867 5.03027C73.3867 4.63633 73.4852 4.34087 73.5836 4.04542C73.6821 3.74996 73.8791 3.45451 74.0761 3.25754C74.273 3.06057 74.47 2.8636 74.7655 2.76511C75.0609 2.66663 75.3564 2.56814 75.6518 2.56814C75.9473 2.56814 76.2427 2.66663 76.4397 2.76511C76.6367 2.8636 76.8337 3.06057 77.0306 3.25754C77.2276 3.45451 77.3261 3.65148 77.4246 3.94693C77.3261 4.04542 77.4246 4.34087 77.4246 4.73481ZM76.4397 4.43936C76.4397 4.04542 76.3412 3.74996 76.1443 3.55299C75.9473 3.35602 75.7503 3.25754 75.3564 3.25754C75.0609 3.25754 74.7655 3.35602 74.5685 3.55299C74.3715 3.74996 74.273 4.04542 74.1746 4.43936H76.4397ZM81.5609 2.66663C81.7579 2.66663 81.9549 2.56814 82.2503 2.56814H83.8261C84.0231 2.56814 84.3185 2.66663 84.5155 2.76511C84.7125 2.8636 84.9094 2.96208 85.1064 3.15905C85.3034 3.35602 85.3034 3.55299 85.3034 3.84845C85.3034 3.94693 85.3034 4.1439 85.2049 4.24239C85.1064 4.34087 85.1064 4.43936 85.0079 4.53784C84.9094 4.63633 84.8109 4.73481 84.7125 4.73481C84.614 4.8333 84.5155 4.8333 84.3185 4.8333C84.614 4.93178 84.9094 5.03027 85.1064 5.22724C85.3034 5.42421 85.4019 5.62118 85.4019 6.01512C85.4019 6.40906 85.3034 6.60603 85.1064 6.803C84.9094 6.99997 84.7125 7.09846 84.417 7.19694C84.1215 7.29543 83.9246 7.39391 83.6291 7.39391H81.4625V2.66663H81.5609ZM82.5458 4.43936H83.5306C83.6291 4.43936 83.8261 4.34087 83.9246 4.34087C84.0231 4.34087 84.1215 4.24239 84.22 4.1439C84.3185 4.04542 84.3185 3.94693 84.3185 3.84845C84.3185 3.65148 84.22 3.45451 84.0231 3.35602C83.8261 3.25754 83.5306 3.25754 83.2352 3.25754H82.6443C82.5458 3.25754 82.5458 4.43936 82.5458 4.43936ZM82.5458 6.50755H83.5306C83.6291 6.50755 83.8261 6.40906 83.9246 6.40906C84.0231 6.31058 84.1215 6.31058 84.22 6.21209C84.3185 6.11361 84.3185 6.01512 84.3185 5.81815C84.3185 5.5227 84.22 5.32572 83.9246 5.22724C83.7276 5.12875 83.3337 5.03027 82.9397 5.03027H82.5458V6.50755Z" fill="white"/>
</svg>
