<svg width="115" height="28" viewBox="0 0 115 28" fill="none" xmlns="http://www.w3.org/2000/svg">
<path d="M57.6258 15.2667C55.328 15.2667 53.4507 17.0169 53.4507 19.4223C53.4507 21.8178 55.328 23.5778 57.6258 23.5778C59.9235 23.5778 61.8009 21.8178 61.8009 19.4223C61.8009 17.0169 59.9235 15.2667 57.6258 15.2667ZM57.6258 21.9449C56.3644 21.9449 55.2791 20.9085 55.2791 19.4223C55.2791 17.9263 56.3644 16.8996 57.6258 16.8996C58.8871 16.8996 59.9724 17.9263 59.9724 19.4223C59.9724 20.9085 58.8773 21.9449 57.6258 21.9449ZM48.5129 15.2667C46.2151 15.2667 44.3378 17.0169 44.3378 19.4223C44.3378 21.8178 46.2151 23.5778 48.5129 23.5778C50.8107 23.5778 52.688 21.8178 52.688 19.4223C52.688 17.0169 50.8107 15.2667 48.5129 15.2667ZM48.5129 21.9449C47.2515 21.9449 46.1662 20.9085 46.1662 19.4223C46.1662 17.9263 47.2515 16.8996 48.5129 16.8996C49.7742 16.8996 50.8595 17.9263 50.8595 19.4223C50.8595 20.9085 49.7742 21.9449 48.5129 21.9449ZM37.6791 16.5476V18.3076H41.9031C41.776 19.2951 41.4435 20.0285 40.9449 20.5271C40.3289 21.1431 39.3707 21.8178 37.6889 21.8178C35.088 21.8178 33.0542 19.7254 33.0542 17.1245C33.0542 14.5236 35.088 12.4311 37.6889 12.4311C39.0871 12.4311 40.1138 12.9787 40.8667 13.6925L42.1084 12.4507C41.0524 11.4436 39.6542 10.6711 37.6791 10.6711C34.12 10.6711 31.128 13.5654 31.128 17.1343C31.128 20.6934 34.12 23.5974 37.6791 23.5974C39.6053 23.5974 41.0524 22.9716 42.1867 21.7885C43.3502 20.6249 43.712 18.9823 43.712 17.6623C43.712 17.2516 43.6827 16.8703 43.6142 16.5574H37.6791V16.5476ZM81.9822 17.9165C81.64 16.9876 80.584 15.2667 78.4231 15.2667C76.2818 15.2667 74.5022 16.9485 74.5022 19.4223C74.5022 21.7494 76.2622 23.5778 78.6284 23.5778C80.5351 23.5778 81.64 22.4143 82.0898 21.7396L80.672 20.7911C80.2027 21.4854 79.5573 21.9449 78.6284 21.9449C77.6995 21.9449 77.0347 21.5147 76.6142 20.6836L82.1778 18.3858L81.9822 17.9165ZM76.3111 19.3049C76.2622 17.7014 77.5529 16.88 78.4818 16.88C79.2053 16.88 79.8213 17.2418 80.0267 17.76L76.3111 19.3049ZM71.7938 23.3334H73.6222V11.1111H71.7938V23.3334ZM68.8018 16.1956H68.7333C68.3227 15.7067 67.5404 15.2667 66.5431 15.2667C64.4604 15.2667 62.5538 17.0951 62.5538 19.4418C62.5538 21.7689 64.4604 23.5876 66.5431 23.5876C67.5307 23.5876 68.3227 23.1476 68.7333 22.6391H68.792V23.2356C68.792 24.8294 67.9413 25.68 66.5724 25.68C65.4578 25.68 64.7635 24.8783 64.48 24.2036L62.8862 24.8685C63.3458 25.9734 64.5582 27.3227 66.5724 27.3227C68.7138 27.3227 70.5227 26.0614 70.5227 22.9911V15.5209H68.792V16.1956H68.8018ZM66.6995 21.9449C65.4382 21.9449 64.3822 20.8889 64.3822 19.4418C64.3822 17.9751 65.4382 16.9094 66.6995 16.9094C67.9413 16.9094 68.9191 17.9849 68.9191 19.4418C68.9289 20.8889 67.9511 21.9449 66.6995 21.9449ZM90.5475 11.1111H86.1769V23.3334H88.0053V18.6987H90.5573C92.5813 18.6987 94.5662 17.232 94.5662 14.9049C94.5662 12.5778 92.5618 11.1111 90.5475 11.1111ZM90.5867 16.9974H87.9955V12.8027H90.5867C91.9555 12.8027 92.728 13.9369 92.728 14.8951C92.728 15.8534 91.9555 16.9974 90.5867 16.9974ZM101.87 15.2471C100.55 15.2471 99.1813 15.8338 98.6142 17.1147L100.237 17.7894C100.58 17.1147 101.225 16.8898 101.9 16.8898C102.838 16.8898 103.806 17.4569 103.816 18.464V18.5911C103.484 18.4054 102.78 18.1218 101.909 18.1218C100.159 18.1218 98.3893 19.08 98.3893 20.8694C98.3893 22.5023 99.8169 23.5583 101.42 23.5583C102.643 23.5583 103.327 23.0107 103.748 22.3654H103.806V23.3138H105.566V18.6303C105.576 16.4596 103.953 15.2471 101.87 15.2471ZM101.645 21.9449C101.049 21.9449 100.218 21.6418 100.218 20.9085C100.218 19.9698 101.254 19.608 102.154 19.608C102.956 19.608 103.337 19.784 103.816 20.0187C103.679 21.1431 102.701 21.9449 101.645 21.9449ZM111.99 15.5111L109.898 20.8107H109.839L107.668 15.5111H105.703L108.959 22.9227L107.101 27.0391H109.008L114.024 15.5111H111.99ZM95.5635 23.3334H97.392V11.1111H95.5635V23.3334Z" fill="white"/>
<path d="M17.4293 17.7404L13.3911 13.7022V13.5555V13.4088L17.4293 9.37061L17.5173 9.4195L22.2987 12.1377C23.6676 12.9102 23.6676 14.1813 22.2987 14.9635L17.5173 17.6817L17.4293 17.7404Z" fill="url(#paint0_linear)"/>
<path d="M17.5173 17.6819L13.3911 13.5557L1.20801 25.7388C1.65779 26.2179 2.4009 26.2766 3.24179 25.7974L17.5173 17.6819Z" fill="url(#paint1_linear)"/>
<path d="M17.5174 9.42932L3.23202 1.31376C2.39113 0.834654 1.64802 0.893322 1.19824 1.37243L13.3911 13.5555L17.5174 9.42932Z" fill="url(#paint2_linear)"/>
<path opacity="0.2" d="M17.4293 17.5938L3.23201 25.6604C2.44001 26.1102 1.72623 26.0809 1.27645 25.6702L1.20801 25.7386L1.27645 25.8071C1.73601 26.2177 2.44001 26.2471 3.23201 25.7973L17.5173 17.6818L17.4293 17.5938Z" fill="black"/>
<path opacity="0.12" d="M1.20796 25.6018C0.924402 25.2987 0.758179 24.8294 0.758179 24.2329V24.3796C0.758179 24.9858 0.924402 25.4551 1.20796 25.7485L1.2764 25.68L1.20796 25.6018Z" fill="black"/>
<path opacity="0.12" d="M22.2987 14.8268L17.4196 17.5939L17.5076 17.6819L22.2889 14.9637C22.9733 14.5726 23.3156 14.0641 23.3156 13.5557C23.2667 14.0152 22.9244 14.4748 22.2987 14.8268Z" fill="black"/>
<path opacity="0.25" d="M3.23197 1.45071L22.2986 12.2845C22.9146 12.6365 23.2666 13.0863 23.3253 13.5556C23.3253 13.0472 22.9831 12.5289 22.2986 12.1476L3.23197 1.31382C1.86308 0.54138 0.748413 1.18671 0.748413 2.75116V2.89783C0.748413 1.3236 1.87286 0.67827 3.23197 1.45071Z" fill="white"/>
<path d="M1.20796 1.3724C0.924402 1.67551 0.758179 2.14485 0.758179 2.74129V24.3697C0.758179 24.976 0.924402 25.4453 1.20796 25.7386L1.2764 25.8071L13.3911 13.7022V13.5555V13.4088L1.2764 1.30396L1.20796 1.3724Z" fill="url(#paint3_linear)"/>
<path d="M32.1742 7.95293H31.4507V5.98759H32.0276C32.536 5.54759 32.7805 4.80448 32.7707 3.7387V0.844482H36.6916V5.98759H37.3467V7.95293H36.6231V6.71115H32.1742V7.95293ZM33.5334 3.74848C33.5431 4.67737 33.3574 5.42048 32.976 5.99737H35.9387V1.56804H33.5334V3.74848Z" fill="white" stroke="white" stroke-width="0.2" stroke-miterlimit="10"/>
<path d="M43.2231 5.94864C42.6462 6.54508 41.9324 6.83842 41.072 6.83842C40.2115 6.83842 39.4978 6.54508 38.9209 5.94864C38.344 5.35219 38.0604 4.62864 38.0604 3.77797C38.0604 2.92731 38.344 2.19397 38.9209 1.60731C39.4978 1.01086 40.2115 0.717529 41.072 0.717529C41.9226 0.717529 42.6364 1.01086 43.2231 1.60731C43.8 2.20375 44.0933 2.92731 44.0933 3.77797C44.0933 4.63842 43.8 5.36197 43.2231 5.94864ZM39.4782 5.45975C39.9084 5.89975 40.4462 6.11486 41.072 6.11486C41.6978 6.11486 42.2355 5.89975 42.6658 5.45975C43.096 5.01975 43.3209 4.46242 43.3209 3.77797C43.3209 3.09353 43.1058 2.5362 42.6658 2.0962C42.2355 1.6562 41.6978 1.44108 41.072 1.44108C40.4462 1.44108 39.9084 1.6562 39.4782 2.0962C39.048 2.5362 38.8231 3.09353 38.8231 3.77797C38.8231 4.46242 39.048 5.01975 39.4782 5.45975Z" fill="white" stroke="white" stroke-width="0.2" stroke-miterlimit="10"/>
<path d="M47.8871 6.8382C47.0267 6.8382 46.3031 6.54486 45.7164 5.9582C45.1298 5.37153 44.8364 4.64798 44.8364 3.76798C44.8364 2.88798 45.1298 2.16442 45.7164 1.57775C46.3031 0.991087 47.0267 0.697754 47.8871 0.697754C48.7671 0.697754 49.4906 1.02042 50.0382 1.65598L49.5102 2.16442C49.1093 1.66575 48.5715 1.42131 47.8773 1.42131C47.2418 1.42131 46.6942 1.63642 46.2542 2.06664C45.8142 2.49686 45.5991 3.06398 45.5991 3.7582C45.5991 4.45242 45.8142 5.01953 46.2542 5.44975C46.6942 5.87997 47.232 6.09509 47.8773 6.09509C48.5813 6.09509 49.1778 5.81153 49.6764 5.24442L50.2044 5.77242C49.9404 6.09509 49.5982 6.34931 49.1973 6.53509C48.7964 6.7502 48.3564 6.8382 47.8871 6.8382Z" fill="white" stroke="white" stroke-width="0.2" stroke-miterlimit="10"/>
<path d="M53.2649 6.71115H52.512V1.56804H50.8693V0.844482H54.8978V1.56804H53.2551V6.71115H53.2649Z" fill="white" stroke="white" stroke-width="0.2" stroke-miterlimit="10"/>
<path d="M60.08 0.844482L57.8605 5.79204C57.5574 6.48626 57.0978 6.83826 56.4916 6.83826C56.3156 6.83826 56.12 6.79915 55.9049 6.71115L56.1005 6.01693C56.2276 6.08537 56.3547 6.12448 56.4916 6.12448C56.6676 6.12448 56.8045 6.09515 56.9022 6.0267C57 5.95826 57.088 5.83115 57.1662 5.65515L57.3814 5.18582L55.4062 0.844482H56.296L57.7431 4.20804H57.7725L59.1902 0.844482H60.08Z" fill="white" stroke="white" stroke-width="0.2" stroke-miterlimit="10"/>
<path d="M60.9307 6.71115V0.844482H65.1742V6.71115H64.4213V1.56804H61.6836V6.71115H60.9307Z" fill="white" stroke="white" stroke-width="0.2" stroke-miterlimit="10"/>
<path d="M66.5137 6.71115V0.844482H67.2666V3.35737H70.2V0.844482H70.9528V6.71115H70.2V4.06137H67.2666V6.71115H66.5137Z" fill="white" stroke="white" stroke-width="0.2" stroke-miterlimit="10"/>
<path d="M77.1032 5.94864C76.5263 6.54508 75.8125 6.83842 74.952 6.83842C74.0916 6.83842 73.3778 6.54508 72.8009 5.94864C72.2241 5.35219 71.9405 4.62864 71.9405 3.77797C71.9405 2.92731 72.2241 2.19397 72.8009 1.60731C73.3778 1.01086 74.0916 0.717529 74.952 0.717529C75.8027 0.717529 76.5165 1.01086 77.1032 1.60731C77.68 2.20375 77.9734 2.92731 77.9734 3.77797C77.9636 4.63842 77.68 5.36197 77.1032 5.94864ZM73.3583 5.45975C73.7885 5.89975 74.3263 6.11486 74.952 6.11486C75.5778 6.11486 76.1156 5.89975 76.5458 5.45975C76.976 5.01975 77.2009 4.46242 77.2009 3.77797C77.2009 3.09353 76.9858 2.5362 76.5458 2.0962C76.1156 1.6562 75.5778 1.44108 74.952 1.44108C74.3263 1.44108 73.7885 1.6562 73.3583 2.0962C72.9281 2.5362 72.7032 3.09353 72.7032 3.77797C72.7032 4.46242 72.9183 5.01975 73.3583 5.45975Z" fill="white" stroke="white" stroke-width="0.2" stroke-miterlimit="10"/>
<path d="M81.0435 6.71115V0.844482H83.1653C83.6249 0.844482 84.0257 1.00093 84.3582 1.29426C84.6906 1.59737 84.8666 1.9787 84.8666 2.43826C84.8666 2.72181 84.7982 2.96626 84.6515 3.17159C84.5049 3.3867 84.3191 3.54315 84.0746 3.65071V3.68004C84.368 3.77782 84.6026 3.94404 84.7884 4.18848C84.9742 4.43293 85.072 4.70671 85.072 5.02937C85.072 5.50848 84.896 5.90937 84.544 6.22226C84.192 6.53515 83.7715 6.70137 83.2924 6.70137H81.0435V6.71115ZM81.7964 3.35737H83.1653C83.4489 3.35737 83.6737 3.25959 83.8497 3.07382C84.0257 2.88804 84.104 2.6827 84.104 2.45782C84.104 2.23293 84.0257 2.02759 83.8497 1.84182C83.6835 1.65604 83.4684 1.55826 83.1946 1.55826H81.7964V3.35737ZM81.7964 5.98759H83.312C83.6053 5.98759 83.84 5.88982 84.016 5.68448C84.192 5.47915 84.2897 5.26404 84.2897 5.01959C84.2897 4.77515 84.2017 4.56004 84.0062 4.36448C83.8204 4.16893 83.576 4.06137 83.2729 4.06137H81.7866V5.98759H81.7964Z" fill="white" stroke="white" stroke-width="0.2" stroke-miterlimit="10"/>
<defs>
<linearGradient id="paint0_linear" x1="24.0825" y1="13.5569" x2="0.423339" y2="13.5569" gradientUnits="userSpaceOnUse">
<stop stop-color="#FFE000"/>
<stop offset="0.4087" stop-color="#FFBD00"/>
<stop offset="0.7754" stop-color="#FFA500"/>
<stop offset="1" stop-color="#FF9C00"/>
</linearGradient>
<linearGradient id="paint1_linear" x1="15.2753" y1="15.8007" x2="-6.97727" y2="38.0533" gradientUnits="userSpaceOnUse">
<stop stop-color="#FF3A44"/>
<stop offset="1" stop-color="#C31162"/>
</linearGradient>
<linearGradient id="paint2_linear" x1="-1.86484" y1="-5.82773" x2="8.07192" y2="4.10894" gradientUnits="userSpaceOnUse">
<stop stop-color="#32A071"/>
<stop offset="0.0685" stop-color="#2DA771"/>
<stop offset="0.4762" stop-color="#15CF74"/>
<stop offset="0.8009" stop-color="#06E775"/>
<stop offset="1" stop-color="#00F076"/>
</linearGradient>
<linearGradient id="paint3_linear" x1="12.3152" y1="2.51611" x2="-4.09424" y2="18.9256" gradientUnits="userSpaceOnUse">
<stop stop-color="#00A0FF"/>
<stop offset="0.00657445" stop-color="#00A1FF"/>
<stop offset="0.2601" stop-color="#00BEFF"/>
<stop offset="0.5122" stop-color="#00D2FF"/>
<stop offset="0.7604" stop-color="#00DFFF"/>
<stop offset="1" stop-color="#00E3FF"/>
</linearGradient>
</defs>
</svg>
