<svg width="13" height="20" viewBox="0 0 13 20" fill="none" xmlns="http://www.w3.org/2000/svg">
<path fill-rule="evenodd" clip-rule="evenodd" d="M11.3452 5.00627C11.3588 2.24264 9.16494 0.00691831 6.43247 2.26521e-05C3.70485 -0.00814997 1.48854 2.19616 1.47245 4.93118C1.45713 7.63658 3.67191 9.87562 6.37296 9.88482C9.10109 9.89401 11.3307 7.70579 11.3452 5.00627ZM9.82794 13.2095C10.636 12.8957 11.3634 12.4472 11.9676 11.8263C12.362 11.4218 12.3663 10.913 12.0453 10.3928C11.7649 9.93615 11.2791 9.74486 10.7568 9.87894C10.4881 9.94687 10.2565 10.0838 10.0402 10.249C7.85374 11.7193 4.86128 11.6777 2.68328 10.1811C2.57652 10.1073 2.46517 10.0381 2.34794 9.98314C1.74393 9.69838 1.16214 9.83169 0.81634 10.3277C0.41154 10.9077 0.462874 11.4698 0.974174 11.9612C1.08005 12.0626 1.19681 12.1529 1.31318 12.243C1.34278 12.2659 1.37235 12.2888 1.4017 12.3118C2.57013 13.2261 3.93547 13.5985 5.44971 13.7566C5.41001 13.799 5.37562 13.8366 5.34429 13.8708C5.29118 13.9288 5.24687 13.9772 5.20044 14.0235C4.98677 14.2377 4.77312 14.4519 4.55947 14.6662C3.66275 15.5654 2.76598 16.4646 1.86754 17.362C1.63743 17.5919 1.47245 17.8478 1.4561 18.1828C1.43235 18.6791 1.73934 19.1722 2.22254 19.4064C2.67791 19.6268 3.14401 19.5576 3.53604 19.171C4.40872 18.3105 5.27579 17.445 6.12957 16.5659C6.34359 16.3455 6.46005 16.2983 6.70191 16.5516C7.25811 17.1335 7.82954 17.7014 8.40117 18.2695C8.68363 18.5502 8.96616 18.831 9.24691 19.1135C9.46809 19.3359 9.71735 19.4951 10.0371 19.5175C10.5423 19.5523 11.0569 19.2297 11.287 18.7381C11.4977 18.2888 11.417 17.81 11.0354 17.4241C10.3181 16.6987 9.59725 15.9765 8.87638 15.2544C8.47087 14.8481 8.06534 14.4418 7.6604 14.035C7.59949 13.9731 7.55005 13.919 7.47114 13.8327C7.44947 13.809 7.42558 13.7829 7.39862 13.7535C8.22712 13.6544 9.06405 13.5048 9.82794 13.2095ZM8.82755 4.93814C8.8324 6.28126 7.7651 7.35724 6.42505 7.36158C5.0809 7.3672 4.00161 6.30527 3.99165 4.96726C3.98118 3.61188 5.06073 2.52287 6.41253 2.52415C7.7531 2.52517 8.82218 3.59502 8.82755 4.93814Z" fill="white"/>
</svg>
