<svg width="20" height="20" viewBox="0 0 20 20" fill="none" xmlns="http://www.w3.org/2000/svg">
<path d="M13.724 0H5.82323C2.61229 0 0 2.61229 0 5.82323V13.724C0 16.935 2.61229 19.5473 5.82323 19.5473H13.724C16.935 19.5473 19.5473 16.935 19.5473 13.724V5.82323C19.5472 2.61229 16.9349 0 13.724 0ZM17.5808 13.724C17.5808 15.854 15.854 17.5808 13.724 17.5808H5.82323C3.69321 17.5808 1.96645 15.854 1.96645 13.724V5.82323C1.96645 3.69318 3.69321 1.96645 5.82323 1.96645H13.724C15.854 1.96645 17.5808 3.69318 17.5808 5.82323V13.724Z" fill="white"/>
<path d="M9.77363 4.71802C6.98596 4.71802 4.71802 6.98596 4.71802 9.7736C4.71802 12.5612 6.98596 14.8292 9.77363 14.8292C12.5613 14.8292 14.8293 12.5613 14.8293 9.7736C14.8293 6.98593 12.5613 4.71802 9.77363 4.71802ZM9.77363 12.8628C8.06752 12.8628 6.68447 11.4797 6.68447 9.77363C6.68447 8.06752 8.06756 6.68447 9.77363 6.68447C11.4797 6.68447 12.8628 8.06752 12.8628 9.77363C12.8628 11.4797 11.4797 12.8628 9.77363 12.8628Z" fill="white"/>
<path d="M14.8391 5.96754C15.5081 5.96754 16.0505 5.42516 16.0505 4.75611C16.0505 4.08705 15.5081 3.54468 14.8391 3.54468C14.17 3.54468 13.6276 4.08705 13.6276 4.75611C13.6276 5.42516 14.17 5.96754 14.8391 5.96754Z" fill="white"/>
</svg>
