<svg width="21" height="16" viewBox="0 0 21 16" fill="none" xmlns="http://www.w3.org/2000/svg">
<path d="M19.9575 1.8613C19.5131 2.05081 19.0518 2.20031 18.5785 2.30855C19.1001 1.83189 19.4922 1.23569 19.7134 0.570221C19.7766 0.380241 19.562 0.215961 19.3837 0.31768C18.7252 0.693326 18.0159 0.97513 17.2754 1.15536C17.2325 1.16581 17.1881 1.17111 17.1437 1.17111C17.0088 1.17111 16.8777 1.12295 16.7745 1.03553C15.9867 0.367766 14.9735 0 13.9216 0C13.4664 0 13.0068 0.0682352 12.5556 0.20283C11.1574 0.619885 10.0787 1.72905 9.74022 3.0975C9.61325 3.61079 9.57887 4.12455 9.63797 4.62447C9.64475 4.68192 9.61652 4.72201 9.59911 4.74082C9.56853 4.77379 9.52518 4.79269 9.48018 4.79269C9.47515 4.79269 9.46999 4.79245 9.46486 4.79199C6.40446 4.51853 3.64472 3.1005 1.694 0.799172C1.59452 0.681789 1.40376 0.696186 1.32448 0.826982C0.942475 1.45728 0.7406 2.17818 0.7406 2.91174C0.7406 4.03596 1.21023 5.09541 2.02597 5.86776C1.68293 5.78953 1.35091 5.66633 1.04249 5.50158C0.893274 5.42186 0.709685 5.52433 0.707589 5.68847C0.686231 7.35857 1.70292 8.84464 3.22595 9.51381C3.19528 9.51452 3.16461 9.51484 3.13389 9.51484C2.89247 9.51484 2.64803 9.49243 2.40743 9.4482C2.2394 9.41735 2.09823 9.57065 2.15041 9.72733C2.64476 11.2117 3.97362 12.3058 5.56385 12.5542C4.24406 13.4063 2.70713 13.8557 1.10749 13.8557L0.608797 13.8554C0.455147 13.8554 0.325196 13.9518 0.286041 14.0949C0.24747 14.2359 0.318516 14.3846 0.44954 14.4579C2.25208 15.4668 4.30813 16 6.39632 16C8.22416 16 9.93396 15.6511 11.4783 14.9632C12.894 14.3324 14.145 13.4308 15.1966 12.2834C16.1762 11.2145 16.9423 9.98063 17.4734 8.61602C17.9797 7.31523 18.2473 5.92727 18.2473 4.60215V4.53902C18.2473 4.32625 18.3473 4.12605 18.5219 3.98976C19.1843 3.47249 19.7612 2.86358 20.2364 2.17996C20.3618 1.99945 20.1639 1.77322 19.9575 1.8613Z" fill="white"/>
</svg>
