<svg width="24" height="12" viewBox="0 0 24 12" fill="none" xmlns="http://www.w3.org/2000/svg">
<path d="M20.0703 7.63019C20.8332 8.31695 21.6385 8.96303 22.3228 9.71904C22.625 10.055 22.9112 10.4017 23.1301 10.7915C23.4404 11.3458 23.1594 11.9557 22.6204 11.9887L19.2697 11.9873C18.4054 12.0534 17.716 11.7327 17.1364 11.1879C16.6725 10.7523 16.2428 10.2886 15.7968 9.83827C15.6139 9.65422 15.4225 9.48102 15.1938 9.3441C14.7364 9.07038 14.3394 9.15417 14.078 9.594C13.8117 10.0414 13.7513 10.5367 13.7252 11.0353C13.6893 11.7627 13.4508 11.954 12.6582 11.9873C10.9645 12.0609 9.35699 11.8247 7.86366 11.0369C6.54709 10.3424 5.5262 9.36199 4.63756 8.25209C2.90749 6.09089 1.58252 3.71603 0.391733 1.27465C0.123685 0.724611 0.319723 0.429357 0.978007 0.418879C2.07109 0.399289 3.16403 0.400698 4.25842 0.417471C4.70269 0.423476 4.9968 0.658387 5.16835 1.04533C5.75975 2.386 6.48339 3.66153 7.39171 4.84382C7.63361 5.15858 7.88028 5.47338 8.23148 5.69492C8.62005 5.94022 8.91591 5.85892 9.09869 5.45984C9.21468 5.20679 9.26549 4.93423 9.29163 4.66325C9.37824 3.73086 9.38965 2.80004 9.23777 1.87092C9.14451 1.29105 8.79026 0.915661 8.16266 0.805951C7.84241 0.749998 7.89007 0.640122 8.04514 0.471601C8.31445 0.180946 8.56776 0 9.07273 0H12.8595C13.4557 0.108468 13.5881 0.355389 13.6697 0.908414L13.6729 4.78646C13.6664 5.00054 13.7889 5.6359 14.2072 5.77758C14.542 5.87847 14.7626 5.63155 14.9635 5.43586C15.8702 4.54869 16.5173 3.50021 17.0954 2.41454C17.3519 1.93714 17.5725 1.44139 17.7863 0.946019C17.9447 0.578454 18.1932 0.397591 18.6423 0.405585L22.2869 0.408566C22.395 0.408566 22.5043 0.410016 22.609 0.426541C23.2231 0.52304 23.3914 0.766606 23.2017 1.31951C22.9029 2.18696 22.3214 2.90987 21.7528 3.6361C21.145 4.41144 20.4949 5.16028 19.8922 5.94022C19.3384 6.65257 19.3824 7.01156 20.0703 7.63019Z" fill="white"/>
</svg>
