<svg width="20" height="20" viewBox="0 0 20 20" fill="none" xmlns="http://www.w3.org/2000/svg">
<path d="M16.9869 0H3.10755C1.69356 0 0.547241 1.20659 0.547241 2.69504V17.3049C0.547241 18.7933 1.69351 19.9999 3.10755 19.9999H9.95277L9.96444 12.853H8.20051C7.97127 12.853 7.78521 12.6579 7.78433 12.4166L7.77587 10.1129C7.77499 9.87025 7.9616 9.67308 8.19209 9.67308H9.95282V7.44709C9.95282 4.86384 11.4516 3.45724 13.6409 3.45724H15.4373C15.6671 3.45724 15.8535 3.65339 15.8535 3.89537V5.83789C15.8535 6.07978 15.6673 6.27587 15.4375 6.27602L14.3351 6.27655C13.1445 6.27655 12.914 6.87207 12.914 7.74602V9.67313H15.53C15.7793 9.67313 15.9727 9.90225 15.9433 10.1628L15.6839 12.4666C15.6591 12.687 15.4815 12.8531 15.2706 12.8531H12.9256L12.914 20H16.987C18.401 20 19.5472 18.7934 19.5472 17.305V2.69504C19.5472 1.20659 18.4009 0 16.9869 0Z" fill="white"/>
</svg>
